<svg xmlns="http://www.w3.org/2000/svg" xmlns:xlink="http://www.w3.org/1999/xlink" width="683px" height="219px" viewBox="0 0 682.8983240000002 219.143736">
    <g transform="matrix(1 0 0 1 -3321.447558 -271.122698)" id="cc79a655-d0ba-430d-9cd4-41df02e4a208">

</g>
<g id="1be65a43-9ebe-47dc-9451-c5d460ca0db6">
<g style="">
		<g id="cf8b0dfb-4a4b-4079-8775-77525682442e">
<path style="stroke: rgb(193,193,193); stroke-width: 0; stroke-dasharray: none; stroke-linecap: butt; stroke-dashoffset: 0; stroke-linejoin: miter; stroke-miterlimit: 4; fill: rgb(0,0,0); fill-rule: nonzero; opacity: 1;" d="M0,121.09v-121.09h33.26v45.4h44.43v-45.4h33.33v121.09h-33.33v-45.4h-44.43v45.4zM199.82,80.73l-16.63,-60.52l-16.7,60.52zM122.13,121.09l33.25,-121.09h55.55l33.32,121.09h-33.32l-5.59,-20.15h-44.37l-5.59,20.15zM292.42,121.09c-12.24,0 -22.71,-3.93 -31.4,-11.8c-8.65,-7.87 -12.97,-17.39 -12.97,-28.56v-40.37c0,-11.13 4.32,-20.63 12.97,-28.49c8.69,-7.91 19.16,-11.87 31.4,-11.87h22.21c12.24,0 22.71,3.96 31.4,11.87c8.69,7.86 13.04,17.36 13.04,28.49h-33.33c0,-2.76 -1.08,-5.13 -3.24,-7.11c-2.16,-1.97 -4.78,-2.96 -7.87,-2.96h-22.21c-3.04,0 -5.64,0.99 -7.8,2.96c-2.21,1.98 -3.31,4.35 -3.31,7.11v40.37c0,2.8 1.1,5.19 3.31,7.17c2.16,1.98 4.76,2.97 7.8,2.97h22.21c3.09,0 5.71,-0.99 7.87,-2.97c2.16,-1.98 3.24,-4.37 3.24,-7.17h33.33c0,11.17 -4.35,20.69 -13.04,28.56c-8.69,7.87 -19.16,11.8 -31.4,11.8zM370.18,121.09v-121.09h33.25v50.44h33.33c3.08,0 5.7,-0.99 7.87,-2.97c2.16,-1.93 3.24,-4.3 3.24,-7.11v-40.36h33.33v40.36c0,3.73 -2.19,6.9 -6.56,9.52c-4.33,2.63 -9.55,3.94 -15.66,3.94v6.76c6.11,0 11.33,1.98 15.66,5.93c4.37,3.91 6.56,8.65 6.56,14.22v40.36h-33.33v-30.22c0,-2.81 -1.08,-5.2 -3.24,-7.18c-2.17,-1.97 -4.79,-2.96 -7.87,-2.96h-33.33v40.36z" stroke-linecap="round"/>
</g>
</g>
</g>
<g transform="matrix(1 0 0 1 -3321.447558 -271.122698)" id="5794f8d3-72e3-4814-bf11-d23b93ce315a">

</g>
<g transform="matrix(1 0 0 1 -3321.447558 -271.122698)" id="7b619042-03da-4db7-80c3-8b44f6314adc">

</g>
<g transform="matrix(1 0 0 1 -3321.447558 -271.122698)" id="30d99eb1-5412-48be-be8c-1472a45110b9">

</g>
<g id="33ca5658-d76b-4cf4-a56c-ed6901fae74d" clip-path="url(#CLIPPATH_163)">
<clipPath id="CLIPPATH_163">
	<path transform="matrix(1 0 0 1 191.180242 179.188736) matrix(1 0 0 1 0 0) translate(-191.180241, 39.955)" id="f82f9327-e6cd-4134-91c3-d782a30ce86a" d="M21.97,0l-21.97,-79.91h26.35l17.6,63.95v-63.95h26.4v63.95l17.6,-63.95h26.35l-21.98,79.91zM151.58,-23.94c4.88,0 9.03,-0.78 12.46,-2.35c3.43,-1.57 5.14,-3.46 5.14,-5.69v0h-21.98c-1.24,0 -2.28,0.4 -3.11,1.21c-0.87,0.76 -1.31,1.69 -1.31,2.78c0,1.13 0.44,2.08 1.31,2.85c0.83,0.8 1.87,1.2 3.11,1.2zM151.58,0c-9.69,0 -17.98,-3.12 -24.87,-9.35c-6.85,-6.23 -10.28,-13.77 -10.28,-22.63v-1.96c0,-2.23 0.86,-4.12 2.57,-5.69c1.71,-1.57 3.77,-2.35 6.17,-2.35h44.01v-5.96c0,-2.22 -0.86,-4.1 -2.57,-5.63c-1.71,-1.6 -3.79,-2.4 -6.23,-2.4h-8.8c-2.41,0 -4.47,0.8 -6.18,2.4c-1.75,1.53 -2.62,3.41 -2.62,5.63h-26.35c0,-8.82 3.43,-16.36 10.28,-22.63c6.89,-6.23 15.18,-9.34 24.87,-9.34h8.8c9.73,0 18.02,3.11 24.87,9.34c6.89,6.27 10.33,13.81 10.33,22.63v47.94h-26.4v-15.96h-5.85c0,4.41 -1.15,8.18 -3.45,11.31c-2.29,3.1 -5.06,4.65 -8.3,4.65zM222.14,0l-21.97,-79.91h26.35l17.6,63.95l17.6,-63.95h26.4l-22.03,79.91zM343.11,-47.94c0,-2.22 -0.86,-4.1 -2.57,-5.63c-1.71,-1.6 -3.79,-2.4 -6.23,-2.4h-8.8c-2.41,0 -4.47,0.8 -6.18,2.4c-1.75,1.53 -2.62,3.41 -2.62,5.63zM325.51,0c-9.69,0 -17.98,-3.12 -24.87,-9.35c-6.85,-6.23 -10.28,-13.77 -10.28,-22.63v-15.96c0,-8.82 3.43,-16.36 10.28,-22.63c6.89,-6.23 15.18,-9.34 24.87,-9.34h8.8c9.73,0 18.02,3.11 24.87,9.34c6.89,6.27 10.33,13.81 10.33,22.63v10.01h-52.8v5.95c0,2.23 0.87,4.12 2.62,5.69c1.71,1.57 3.77,2.35 6.18,2.35h8.8c2.44,0 4.52,-0.78 6.23,-2.35c1.71,-1.57 2.57,-3.46 2.57,-5.69h26.4c0,8.86 -3.44,16.4 -10.33,22.63c-6.85,6.23 -15.14,9.35 -24.87,9.35z" stroke-linecap="round"/>
</clipPath>
<g style="">
		<g id="d0d0b2fb-adcf-4a1a-ae69-add193463009">
<rect style="stroke: rgb(193,193,193); stroke-width: 0; stroke-dasharray: none; stroke-linecap: butt; stroke-dashoffset: 0; stroke-linejoin: miter; stroke-miterlimit: 4; fill: rgb(254,170,192); fill-rule: nonzero; opacity: 1;" x="-191.1802415" y="-39.955" rx="0" ry="0" width="382.360483" height="79.91" transform="matrix(1 0 0 1 191.180242 179.188736) matrix(1 0 0 1 0 0)"/>
</g>
		<g id="ab0645de-d2fa-4ed9-93ad-1ff13cb58a88">
<path style="stroke: rgb(255,0,66); stroke-opacity: 0.8; stroke-width: 0.9; stroke-dasharray: none; stroke-linecap: butt; stroke-dashoffset: 0; stroke-linejoin: miter; stroke-miterlimit: 4; fill: none; fill-rule: nonzero; opacity: 1;" d="M21.97,219.14374l-21.97,-79.91h26.35l17.6,63.95v-63.95h26.4v63.95l17.6,-63.95h26.35l-21.98,79.91zM151.58,195.20374c4.88,0 9.03,-0.78 12.46,-2.35c3.43,-1.57 5.14,-3.46 5.14,-5.69v0h-21.98c-1.24,0 -2.28,0.4 -3.11,1.21c-0.87,0.76 -1.31,1.69 -1.31,2.78c0,1.13 0.44,2.08 1.31,2.85c0.83,0.8 1.87,1.2 3.11,1.2zM151.58,219.14374c-9.69,0 -17.98,-3.12 -24.87,-9.35c-6.85,-6.23 -10.28,-13.77 -10.28,-22.63v-1.96c0,-2.23 0.86,-4.12 2.57,-5.69c1.71,-1.57 3.77,-2.35 6.17,-2.35h44.01v-5.96c0,-2.22 -0.86,-4.1 -2.57,-5.63c-1.71,-1.6 -3.79,-2.4 -6.23,-2.4h-8.8c-2.41,0 -4.47,0.8 -6.18,2.4c-1.75,1.53 -2.62,3.41 -2.62,5.63h-26.35c0,-8.82 3.43,-16.36 10.28,-22.63c6.89,-6.23 15.18,-9.34 24.87,-9.34h8.8c9.73,0 18.02,3.11 24.87,9.34c6.89,6.27 10.33,13.81 10.33,22.63v47.94h-26.4v-15.96h-5.85c0,4.41 -1.15,8.18 -3.45,11.31c-2.29,3.1 -5.06,4.65 -8.3,4.65zM222.14,219.14374l-21.97,-79.91h26.35l17.6,63.95l17.6,-63.95h26.4l-22.03,79.91zM343.11,171.20374c0,-2.22 -0.86,-4.1 -2.57,-5.63c-1.71,-1.6 -3.79,-2.4 -6.23,-2.4h-8.8c-2.41,0 -4.47,0.8 -6.18,2.4c-1.75,1.53 -2.62,3.41 -2.62,5.63zM325.51,219.14374c-9.69,0 -17.98,-3.12 -24.87,-9.35c-6.85,-6.23 -10.28,-13.77 -10.28,-22.63v-15.96c0,-8.82 3.43,-16.36 10.28,-22.63c6.89,-6.23 15.18,-9.34 24.87,-9.34h8.8c9.73,0 18.02,3.11 24.87,9.34c6.89,6.27 10.33,13.81 10.33,22.63v10.01h-52.8v5.95c0,2.23 0.87,4.12 2.62,5.69c1.71,1.57 3.77,2.35 6.18,2.35h8.8c2.44,0 4.52,-0.78 6.23,-2.35c1.71,-1.57 2.57,-3.46 2.57,-5.69h26.4c0,8.86 -3.44,16.4 -10.33,22.63c-6.85,6.23 -15.14,9.35 -24.87,9.35z" stroke-linecap="round"/>
</g>
</g>
</g>
<g transform="matrix(1 0 0 1 -3321.447558 -271.122698)" id="bf8441c3-fd1e-4dd1-9d1f-685f3da14d80">

</g>
<g transform="matrix(1 0 0 1 -3321.447558 -271.122698)" id="a5ac30c3-2380-4873-9e30-9dffce30c052">

</g>
<g transform="matrix(1 0 0 1 -3321.447558 -271.122698)" id="e6938680-3167-41de-a6e4-1f1da7d21d88">

</g>
<g id="9b929f71-63d3-4620-8150-a8c04e3bca0f" clip-path="url(#CLIPPATH_164)">
<clipPath id="CLIPPATH_164">
	<path transform="matrix(1 0 0 1 548.064463 127.951322) matrix(1 0 0 1 0 0) translate(-142.23, 52.325)" id="12ee6f99-da22-478a-b8ce-23e229083bd0" d="M100.13,1.94c4.46,0 8.75,-0.88 12.86,-2.64c5.17,-2.12 7.75,-5.23 7.75,-9.34c0,-4.7 -3.58,-8.34 -10.75,-10.93c-0.94,-0.35 -1.41,-0.81 -1.41,-1.4c0,-1.53 1,-2 3,-1.41c9.75,2.81 14.62,7.51 14.62,14.09c0,5.52 -2.99,9.95 -8.98,13.3c-5.99,3.35 -12.31,5.02 -18.94,5.02c-6.64,0 -14.89,-1.7 -24.76,-5.11l-24.48,-8.81c-5.53,-1.64 -9.93,-2.46 -13.22,-2.46c-4.23,1.99 -11.16,4.69 -20.79,8.1c-1.41,0.35 -2.64,0.53 -3.7,0.53c-2.82,0 -4.23,-1.06 -4.23,-3.17c0,-2.59 1.53,-5.05 4.59,-7.4c4.46,-2.93 10.98,-4.4 19.55,-4.4c2,0 4,0.06 5.99,0.17c27.49,-16.56 45.34,-28.07 53.56,-34.53c8.22,-6.46 14.33,-12.16 18.32,-17.09c5.52,-6.57 8.87,-13.62 10.04,-21.14c0.24,-1.41 0.36,-2.4 0.36,-2.99c0,-6.35 -3.94,-9.52 -11.81,-9.52c-7.87,0 -17.35,2.53 -28.45,7.58c-11.1,5.05 -19.82,10.39 -26.16,16.03c-0.47,0.47 -1,0.7 -1.59,0.7c-1.17,0 -1.76,-0.7 -1.76,-2.11c0,-0.82 0.35,-1.52 1.06,-2.11c8.1,-6.93 18.88,-13.39 32.33,-19.38c13.45,-5.99 25.28,-8.99 35.5,-8.99c10.21,0 15.32,4.17 15.32,12.51c0,9.16 -5.46,19.26 -16.38,30.3c-4.7,4.93 -13.04,12.13 -25.02,21.58c-11.98,9.46 -28.89,19.89 -50.74,31.28c5.05,0.59 14.04,3.02 26.96,7.31c12.92,4.29 23.37,6.43 31.36,6.43zM143.47,-11.1c1.76,0 3.43,0.59 5.02,1.76c1.59,1.17 2.38,2.5 2.38,3.97c0,1.47 -0.74,2.76 -2.21,3.87c-1.47,1.12 -3.08,1.68 -4.84,1.68c-1.76,0 -3.38,-0.62 -4.85,-1.85c-1.47,-1.23 -2.2,-2.67 -2.2,-4.32c0,-3.41 2.23,-5.11 6.7,-5.11zM271.72,-108.35c-0.23,1.65 -1.76,1.91 -4.58,0.79c-2.81,-1.11 -5.07,-1.67 -6.78,-1.67c-1.7,0 -2.67,0 -2.91,0c3.65,1.17 7,3.23 10.05,6.17c6.57,6.22 9.86,13.97 9.86,23.25c0,9.28 -2.58,18.74 -7.75,28.37c-5.17,9.63 -12.1,18.26 -20.79,25.89c-20.32,18.09 -40.52,27.14 -60.6,27.14c-2.35,0 -4.59,-0.18 -6.7,-0.53c-9.75,-1.29 -14.62,-8.17 -14.62,-20.62c0,-12.45 4.58,-26.13 13.74,-41.05c5.64,-9.39 13.6,-18.49 23.87,-27.3c10.28,-8.81 20.65,-15.57 31.1,-20.26c-0.47,-0.47 -0.71,-0.94 -0.71,-1.41c0,-1.41 1.94,-2.12 5.82,-2.12c1.17,0 2.58,0.06 4.23,0.18c3.4,-1.17 7.92,-1.76 13.56,-1.76c8.81,0 13.21,1.64 13.21,4.93zM175,-16.91c0,8.93 2.88,13.62 8.64,14.09c1.17,0.12 2.35,0.18 3.52,0.18c15.85,0 33.29,-8.37 52.32,-25.11c19.03,-16.73 28.54,-34.56 28.54,-53.47c0,-8.93 -1.88,-14.92 -5.63,-17.97c-5.76,-4.46 -11.16,-7.16 -16.21,-8.1c-10.93,3.41 -22.44,10.86 -34.53,22.37c-8.93,8.69 -16.33,17.56 -22.2,26.61c-9.63,14.91 -14.45,28.71 -14.45,41.4z" stroke-linecap="round"/>
</clipPath>
<g style="">
		<g id="81b797cf-b158-4136-bee1-183d8b3a2661">
<rect style="stroke: rgb(193,193,193); stroke-width: 0; stroke-dasharray: none; stroke-linecap: butt; stroke-dashoffset: 0; stroke-linejoin: miter; stroke-miterlimit: 4; fill: rgb(254,170,192); fill-rule: nonzero; opacity: 1;" x="-134.833861" y="-60.955" rx="0" ry="0" width="269.667722" height="121.91" transform="matrix(1 0 0 1 548.064463 127.951322) matrix(1 0 0 1 0 0)"/>
</g>
		<g id="06326775-a7d4-4426-9e80-4cc707146d1d">
<path style="stroke: rgb(255,0,66); stroke-opacity: 0.8; stroke-width: 1; stroke-dasharray: none; stroke-linecap: butt; stroke-dashoffset: 0; stroke-linejoin: miter; stroke-miterlimit: 4; fill: none; fill-rule: nonzero; opacity: 1;" d="M505.96446,182.21632c4.46,0 8.75,-0.88 12.86,-2.64c5.17,-2.12 7.75,-5.23 7.75,-9.34c0,-4.7 -3.58,-8.34 -10.75,-10.93c-0.94,-0.35 -1.41,-0.81 -1.41,-1.4c0,-1.53 1,-2 3,-1.41c9.75,2.81 14.62,7.51 14.62,14.09c0,5.52 -2.99,9.95 -8.98,13.3c-5.99,3.35 -12.31,5.02 -18.94,5.02c-6.64,0 -14.89,-1.7 -24.76,-5.11l-24.48,-8.81c-5.53,-1.64 -9.93,-2.46 -13.22,-2.46c-4.23,1.99 -11.16,4.69 -20.79,8.1c-1.41,0.35 -2.64,0.53 -3.7,0.53c-2.82,0 -4.23,-1.06 -4.23,-3.17c0,-2.59 1.53,-5.05 4.59,-7.4c4.46,-2.93 10.98,-4.4 19.55,-4.4c2,0 4,0.06 5.99,0.17c27.49,-16.56 45.34,-28.07 53.56,-34.53c8.22,-6.46 14.33,-12.16 18.32,-17.09c5.52,-6.57 8.87,-13.62 10.04,-21.14c0.24,-1.41 0.36,-2.4 0.36,-2.99c0,-6.35 -3.94,-9.52 -11.81,-9.52c-7.87,0 -17.35,2.53 -28.45,7.58c-11.1,5.05 -19.82,10.39 -26.16,16.03c-0.47,0.47 -1,0.7 -1.59,0.7c-1.17,0 -1.76,-0.7 -1.76,-2.11c0,-0.82 0.35,-1.52 1.06,-2.11c8.1,-6.93 18.88,-13.39 32.33,-19.38c13.45,-5.99 25.28,-8.99 35.5,-8.99c10.21,0 15.32,4.17 15.32,12.51c0,9.16 -5.46,19.26 -16.38,30.3c-4.7,4.93 -13.04,12.13 -25.02,21.58c-11.98,9.46 -28.89,19.89 -50.74,31.28c5.05,0.59 14.04,3.02 26.96,7.31c12.92,4.29 23.37,6.43 31.36,6.43zM549.30446,169.17632c1.76,0 3.43,0.59 5.02,1.76c1.59,1.17 2.38,2.5 2.38,3.97c0,1.47 -0.74,2.76 -2.21,3.87c-1.47,1.12 -3.08,1.68 -4.84,1.68c-1.76,0 -3.38,-0.62 -4.85,-1.85c-1.47,-1.23 -2.2,-2.67 -2.2,-4.32c0,-3.41 2.23,-5.11 6.7,-5.11zM677.55446,71.92632c-0.23,1.65 -1.76,1.91 -4.58,0.79c-2.81,-1.11 -5.07,-1.67 -6.78,-1.67c-1.7,0 -2.67,0 -2.91,0c3.65,1.17 7,3.23 10.05,6.17c6.57,6.22 9.86,13.97 9.86,23.25c0,9.28 -2.58,18.74 -7.75,28.37c-5.17,9.63 -12.1,18.26 -20.79,25.89c-20.32,18.09 -40.52,27.14 -60.6,27.14c-2.35,0 -4.59,-0.18 -6.7,-0.53c-9.75,-1.29 -14.62,-8.17 -14.62,-20.62c0,-12.45 4.58,-26.13 13.74,-41.05c5.64,-9.39 13.6,-18.49 23.87,-27.3c10.28,-8.81 20.65,-15.57 31.1,-20.26c-0.47,-0.47 -0.71,-0.94 -0.71,-1.41c0,-1.41 1.94,-2.12 5.82,-2.12c1.17,0 2.58,0.06 4.23,0.18c3.4,-1.17 7.92,-1.76 13.56,-1.76c8.81,0 13.21,1.64 13.21,4.93zM580.83446,163.36632c0,8.93 2.88,13.62 8.64,14.09c1.17,0.12 2.35,0.18 3.52,0.18c15.85,0 33.29,-8.37 52.32,-25.11c19.03,-16.73 28.54,-34.56 28.54,-53.47c0,-8.93 -1.88,-14.92 -5.63,-17.97c-5.76,-4.46 -11.16,-7.16 -16.21,-8.1c-10.93,3.41 -22.44,10.86 -34.53,22.37c-8.93,8.69 -16.33,17.56 -22.2,26.61c-9.63,14.91 -14.45,28.71 -14.45,41.4z" stroke-linecap="round"/>
</g>
</g>
</g>
<g transform="matrix(1 0 0 1 -3321.447558 -271.122698)" id="9b3dacf2-49fb-4ff2-b272-3c11ae0a3ac8">

</g>
<g transform="matrix(1 0 0 1 -3321.447558 -271.122698)" id="9a44fdad-23dc-41d6-b44b-8350530ba282">

</g>

  </svg>