<svg xmlns="http://www.w3.org/2000/svg" xmlns:xlink="http://www.w3.org/1999/xlink" width="231" zoomAndPan="magnify" viewBox="0 0 173.25 173.249997" height="231" preserveAspectRatio="xMidYMid meet" version="1.2"><defs><clipPath id="3202760aee"><path d="M 0 0 L 172.054688 0 L 172.054688 172.054688 L 0 172.054688 Z M 0 0 "/></clipPath><clipPath id="7e95f3e0a5"><path d="M 41.820312 0 L 130.234375 0 C 153.332031 0 172.054688 18.722656 172.054688 41.820312 L 172.054688 130.234375 C 172.054688 153.332031 153.332031 172.054688 130.234375 172.054688 L 41.820312 172.054688 C 18.722656 172.054688 0 153.332031 0 130.234375 L 0 41.820312 C 0 18.722656 18.722656 0 41.820312 0 Z M 41.820312 0 "/></clipPath><clipPath id="565da7b63b"><path d="M 0 0 L 171.757812 0 L 171.757812 171.757812 L 0 171.757812 Z M 0 0 "/></clipPath><clipPath id="b3c239b5fb"><path d="M 41.746094 0 L 130.011719 0 C 153.066406 0 171.757812 18.691406 171.757812 41.746094 L 171.757812 130.011719 C 171.757812 153.066406 153.066406 171.757812 130.011719 171.757812 L 41.746094 171.757812 C 18.691406 171.757812 0 153.066406 0 130.011719 L 0 41.746094 C 0 18.691406 18.691406 0 41.746094 0 Z M 41.746094 0 "/></clipPath><clipPath id="9bc75ba522"><path d="M 39.703125 39.46875 L 132.300781 39.46875 L 132.300781 135.054688 L 39.703125 135.054688 Z M 39.703125 39.46875 "/></clipPath></defs><g id="b981d05a0a"><g clip-rule="nonzero" clip-path="url(#3202760aee)"><g clip-rule="nonzero" clip-path="url(#7e95f3e0a5)"><path style=" stroke:none;fill-rule:nonzero;fill:#d1ecff;fill-opacity:1;" d="M 0 0 L 172.054688 0 L 172.054688 172.054688 L 0 172.054688 Z M 0 0 "/></g></g><g clip-rule="nonzero" clip-path="url(#565da7b63b)"><g clip-rule="nonzero" clip-path="url(#b3c239b5fb)"><path style="fill:none;stroke-width:8;stroke-linecap:butt;stroke-linejoin:miter;stroke:#92e1ff;stroke-opacity:1;stroke-miterlimit:4;" d="M 55.997361 0.00000000000005694 L 174.39508 0.00000000000005694 C 205.32017 0.00000000000005694 230.392443 25.072273 230.392443 55.997363 L 230.392443 174.395082 C 230.392443 205.320172 205.32017 230.392445 174.39508 230.392445 L 55.997361 230.392445 C 25.072271 230.392445 -0.00000201207 205.320172 -0.00000201207 174.395082 L -0.00000201207 55.997363 C -0.00000201207 25.072273 25.072271 0.00000000000005694 55.997361 0.00000000000005694 Z M 55.997361 0.00000000000005694 " transform="matrix(0.745501,0,0,0.745501,0.0000015,-0.000000000000042449)"/></g></g><g clip-rule="nonzero" clip-path="url(#9bc75ba522)"><path style=" stroke:none;fill-rule:nonzero;fill:#92e1ff;fill-opacity:1;" d="M 77.085938 39.65625 L 95.132812 39.472656 L 94.765625 72.070312 L 122.574219 56.597656 L 132.152344 70.410156 L 102.867188 87.171875 L 132.152344 103.195312 L 122.757812 119.03125 L 94.582031 100.617188 L 94.398438 135.054688 L 77.269531 135.054688 L 78.191406 100.429688 L 48.722656 119.402344 L 39.882812 102.640625 L 70.269531 86.988281 L 39.699219 70.042969 L 49.273438 54.941406 L 77.820312 72.621094 Z M 77.085938 39.65625 "/></g></g></svg>