<svg xmlns="http://www.w3.org/2000/svg" xmlns:xlink="http://www.w3.org/1999/xlink" width="231" zoomAndPan="magnify" viewBox="0 0 173.25 173.249997" height="231" preserveAspectRatio="xMidYMid meet" version="1.2"><defs><clipPath id="475e0a44d4"><path d="M 0 0 L 172.054688 0 L 172.054688 172.054688 L 0 172.054688 Z M 0 0 "/></clipPath><clipPath id="6fc15904f5"><path d="M 41.820312 0 L 130.234375 0 C 153.332031 0 172.054688 18.722656 172.054688 41.820312 L 172.054688 130.234375 C 172.054688 153.332031 153.332031 172.054688 130.234375 172.054688 L 41.820312 172.054688 C 18.722656 172.054688 0 153.332031 0 130.234375 L 0 41.820312 C 0 18.722656 18.722656 0 41.820312 0 Z M 41.820312 0 "/></clipPath><clipPath id="60d8143a15"><path d="M 0 0 L 171.757812 0 L 171.757812 171.757812 L 0 171.757812 Z M 0 0 "/></clipPath><clipPath id="3d0ca24a4f"><path d="M 41.746094 0 L 130.011719 0 C 153.066406 0 171.757812 18.691406 171.757812 41.746094 L 171.757812 130.011719 C 171.757812 153.066406 153.066406 171.757812 130.011719 171.757812 L 41.746094 171.757812 C 18.691406 171.757812 0 153.066406 0 130.011719 L 0 41.746094 C 0 18.691406 18.691406 0 41.746094 0 Z M 41.746094 0 "/></clipPath><clipPath id="553df938a6"><path d="M 54.585938 39.578125 L 117.3125 39.578125 L 117.3125 139.644531 L 54.585938 139.644531 Z M 54.585938 39.578125 "/></clipPath></defs><g id="9bcd3263ad"><g clip-rule="nonzero" clip-path="url(#475e0a44d4)"><g clip-rule="nonzero" clip-path="url(#6fc15904f5)"><path style=" stroke:none;fill-rule:nonzero;fill:#dcd0fe;fill-opacity:1;" d="M 0 0 L 172.054688 0 L 172.054688 172.054688 L 0 172.054688 Z M 0 0 "/></g></g><g clip-rule="nonzero" clip-path="url(#60d8143a15)"><g clip-rule="nonzero" clip-path="url(#3d0ca24a4f)"><path style="fill:none;stroke-width:8;stroke-linecap:butt;stroke-linejoin:miter;stroke:#c2acff;stroke-opacity:1;stroke-miterlimit:4;" d="M 55.997361 -0.00000000000005694 L 174.39508 -0.00000000000005694 C 205.32017 -0.00000000000005694 230.392443 25.072273 230.392443 55.997363 L 230.392443 174.395082 C 230.392443 205.320172 205.32017 230.392445 174.39508 230.392445 L 55.997361 230.392445 C 25.072271 230.392445 -0.00000201207 205.320172 -0.00000201207 174.395082 L -0.00000201207 55.997363 C -0.00000201207 25.072273 25.072271 -0.00000000000005694 55.997361 -0.00000000000005694 Z M 55.997361 -0.00000000000005694 " transform="matrix(0.745501,0,0,0.745501,0.0000015,0.000000000000042449)"/></g></g><g clip-rule="nonzero" clip-path="url(#553df938a6)"><path style=" stroke:none;fill-rule:nonzero;fill:#c2acff;fill-opacity:1;" d="M 54.636719 139.386719 L 117.265625 139.386719 L 94.964844 89.480469 L 117.265625 39.578125 L 54.636719 39.578125 L 76.941406 89.480469 Z M 54.636719 139.386719 "/></g></g></svg>