<svg xmlns="http://www.w3.org/2000/svg" xmlns:xlink="http://www.w3.org/1999/xlink" width="231" zoomAndPan="magnify" viewBox="0 0 173.25 173.249997" height="231" preserveAspectRatio="xMidYMid meet" version="1.2"><defs><clipPath id="52c3a32d9d"><path d="M 0 0 L 172.054688 0 L 172.054688 172.054688 L 0 172.054688 Z M 0 0 "/></clipPath><clipPath id="581fceab3b"><path d="M 41.820312 0 L 130.234375 0 C 153.332031 0 172.054688 18.722656 172.054688 41.820312 L 172.054688 130.234375 C 172.054688 153.332031 153.332031 172.054688 130.234375 172.054688 L 41.820312 172.054688 C 18.722656 172.054688 0 153.332031 0 130.234375 L 0 41.820312 C 0 18.722656 18.722656 0 41.820312 0 Z M 41.820312 0 "/></clipPath><clipPath id="ca0fa27c9b"><path d="M 0 0 L 171.757812 0 L 171.757812 171.757812 L 0 171.757812 Z M 0 0 "/></clipPath><clipPath id="94bc2af622"><path d="M 41.746094 0 L 130.011719 0 C 153.066406 0 171.757812 18.691406 171.757812 41.746094 L 171.757812 130.011719 C 171.757812 153.066406 153.066406 171.757812 130.011719 171.757812 L 41.746094 171.757812 C 18.691406 171.757812 0 153.066406 0 130.011719 L 0 41.746094 C 0 18.691406 18.691406 0 41.746094 0 Z M 41.746094 0 "/></clipPath><clipPath id="9e282b1452"><path d="M 37.300781 38.136719 L 132.886719 38.136719 L 132.886719 133.722656 L 37.300781 133.722656 Z M 37.300781 38.136719 "/></clipPath></defs><g id="c8b06ebe49"><g clip-rule="nonzero" clip-path="url(#52c3a32d9d)"><g clip-rule="nonzero" clip-path="url(#581fceab3b)"><path style=" stroke:none;fill-rule:nonzero;fill:#fec4dc;fill-opacity:1;" d="M 0 0 L 172.054688 0 L 172.054688 172.054688 L 0 172.054688 Z M 0 0 "/></g></g><g clip-rule="nonzero" clip-path="url(#ca0fa27c9b)"><g clip-rule="nonzero" clip-path="url(#94bc2af622)"><path style="fill:none;stroke-width:8;stroke-linecap:butt;stroke-linejoin:miter;stroke:#feaac0;stroke-opacity:1;stroke-miterlimit:4;" d="M 55.997361 -0.00000000000005694 L 174.39508 -0.00000000000005694 C 205.32017 -0.00000000000005694 230.392443 25.072273 230.392443 55.997363 L 230.392443 174.395082 C 230.392443 205.320172 205.32017 230.392445 174.39508 230.392445 L 55.997361 230.392445 C 25.072271 230.392445 -0.00000201207 205.320172 -0.00000201207 174.395082 L -0.00000201207 55.997363 C -0.00000201207 25.072273 25.072271 -0.00000000000005694 55.997361 -0.00000000000005694 Z M 55.997361 -0.00000000000005694 " transform="matrix(0.745501,0,0,0.745501,0.0000015,0.000000000000042449)"/></g></g><g clip-rule="nonzero" clip-path="url(#9e282b1452)"><path style=" stroke:none;fill-rule:nonzero;fill:#feaac0;fill-opacity:1;" d="M 87.808594 133.726562 L 79.804688 116.382812 L 66.667969 130.289062 L 67.019531 111.207031 L 49.121094 118.066406 L 57.757812 101.027344 L 38.640625 99.480469 L 53.855469 87.855469 L 37.304688 78.207031 L 56.082031 74.304688 L 45.375 58.46875 L 63.996094 63.054688 L 61.257812 44.167969 L 76.03125 56.339844 L 81.804688 38.136719 L 89.808594 55.480469 L 102.945312 41.574219 L 102.589844 60.65625 L 120.492188 53.796875 L 111.851562 70.835938 L 130.972656 72.382812 L 115.757812 84.007812 L 132.308594 93.65625 L 113.53125 97.558594 L 124.234375 113.394531 L 105.617188 108.808594 L 108.355469 127.695312 L 93.578125 115.523438 Z M 87.808594 133.726562 "/></g></g></svg>