<svg xmlns="http://www.w3.org/2000/svg" xmlns:xlink="http://www.w3.org/1999/xlink" width="231" zoomAndPan="magnify" viewBox="0 0 173.25 173.249997" height="231" preserveAspectRatio="xMidYMid meet" version="1.2"><defs><clipPath id="dbed77c526"><path d="M 0 0 L 172.054688 0 L 172.054688 172.054688 L 0 172.054688 Z M 0 0 "/></clipPath><clipPath id="b8adb04317"><path d="M 41.820312 0 L 130.234375 0 C 153.332031 0 172.054688 18.722656 172.054688 41.820312 L 172.054688 130.234375 C 172.054688 153.332031 153.332031 172.054688 130.234375 172.054688 L 41.820312 172.054688 C 18.722656 172.054688 0 153.332031 0 130.234375 L 0 41.820312 C 0 18.722656 18.722656 0 41.820312 0 Z M 41.820312 0 "/></clipPath><clipPath id="be46b8550f"><path d="M 0 0 L 171.757812 0 L 171.757812 171.757812 L 0 171.757812 Z M 0 0 "/></clipPath><clipPath id="d6896e6f53"><path d="M 41.746094 0 L 130.011719 0 C 153.066406 0 171.757812 18.691406 171.757812 41.746094 L 171.757812 130.011719 C 171.757812 153.066406 153.066406 171.757812 130.011719 171.757812 L 41.746094 171.757812 C 18.691406 171.757812 0 153.066406 0 130.011719 L 0 41.746094 C 0 18.691406 18.691406 0 41.746094 0 Z M 41.746094 0 "/></clipPath><clipPath id="6f3eeaad6c"><path d="M 37.039062 38.375 L 134.867188 38.375 L 134.867188 136.199219 L 37.039062 136.199219 Z M 37.039062 38.375 "/></clipPath></defs><g id="9aa6d2d758"><g clip-rule="nonzero" clip-path="url(#dbed77c526)"><g clip-rule="nonzero" clip-path="url(#b8adb04317)"><path style=" stroke:none;fill-rule:nonzero;fill:#c5ffc9;fill-opacity:1;" d="M 0 0 L 172.054688 0 L 172.054688 172.054688 L 0 172.054688 Z M 0 0 "/></g></g><g clip-rule="nonzero" clip-path="url(#be46b8550f)"><g clip-rule="nonzero" clip-path="url(#d6896e6f53)"><path style="fill:none;stroke-width:8;stroke-linecap:butt;stroke-linejoin:miter;stroke:#97ef9d;stroke-opacity:1;stroke-miterlimit:4;" d="M 55.997361 0.00000000000005694 L 174.39508 0.00000000000005694 C 205.32017 0.00000000000005694 230.392443 25.072273 230.392443 55.997363 L 230.392443 174.395082 C 230.392443 205.320172 205.32017 230.392445 174.39508 230.392445 L 55.997361 230.392445 C 25.072271 230.392445 -0.00000201207 205.320172 -0.00000201207 174.395082 L -0.00000201207 55.997363 C -0.00000201207 25.072273 25.072271 0.00000000000005694 55.997361 0.00000000000005694 Z M 55.997361 0.00000000000005694 " transform="matrix(0.745501,0,0,0.745501,0.0000015,-0.000000000000042449)"/></g></g><g clip-rule="nonzero" clip-path="url(#6f3eeaad6c)"><path style=" stroke:none;fill-rule:nonzero;fill:#97ef9d;fill-opacity:1;" d="M 85.953125 38.375 C 90.71875 78.644531 94.578125 82.519531 134.867188 87.289062 L 134.617188 87.320312 C 94.578125 92.070312 90.703125 95.996094 85.953125 136.199219 C 81.1875 95.914062 77.328125 92.054688 37.039062 87.289062 C 77.328125 82.519531 81.1875 78.664062 85.953125 38.375 Z M 85.953125 38.375 "/></g></g></svg>