<svg xmlns="http://www.w3.org/2000/svg" xmlns:xlink="http://www.w3.org/1999/xlink" width="231" zoomAndPan="magnify" viewBox="0 0 173.25 173.249997" height="231" preserveAspectRatio="xMidYMid meet" version="1.2"><defs><clipPath id="1ff4e96bb4"><path d="M 0 0 L 172.054688 0 L 172.054688 172.054688 L 0 172.054688 Z M 0 0 "/></clipPath><clipPath id="78f487e06b"><path d="M 41.820312 0 L 130.234375 0 C 153.332031 0 172.054688 18.722656 172.054688 41.820312 L 172.054688 130.234375 C 172.054688 153.332031 153.332031 172.054688 130.234375 172.054688 L 41.820312 172.054688 C 18.722656 172.054688 0 153.332031 0 130.234375 L 0 41.820312 C 0 18.722656 18.722656 0 41.820312 0 Z M 41.820312 0 "/></clipPath><clipPath id="dadd0f53e4"><path d="M 0 0 L 171.757812 0 L 171.757812 171.757812 L 0 171.757812 Z M 0 0 "/></clipPath><clipPath id="371c5c0986"><path d="M 41.746094 0 L 130.011719 0 C 153.066406 0 171.757812 18.691406 171.757812 41.746094 L 171.757812 130.011719 C 171.757812 153.066406 153.066406 171.757812 130.011719 171.757812 L 41.746094 171.757812 C 18.691406 171.757812 0 153.066406 0 130.011719 L 0 41.746094 C 0 18.691406 18.691406 0 41.746094 0 Z M 41.746094 0 "/></clipPath><clipPath id="79f0e3ba1f"><path d="M 39.578125 39.578125 L 132.179688 39.578125 L 132.179688 132.179688 L 39.578125 132.179688 Z M 39.578125 39.578125 "/></clipPath></defs><g id="c5cfe101ca"><g clip-rule="nonzero" clip-path="url(#1ff4e96bb4)"><g clip-rule="nonzero" clip-path="url(#78f487e06b)"><path style=" stroke:none;fill-rule:nonzero;fill:#f9ffa5;fill-opacity:1;" d="M 0 0 L 172.054688 0 L 172.054688 172.054688 L 0 172.054688 Z M 0 0 "/></g></g><g clip-rule="nonzero" clip-path="url(#dadd0f53e4)"><g clip-rule="nonzero" clip-path="url(#371c5c0986)"><path style="fill:none;stroke-width:8;stroke-linecap:butt;stroke-linejoin:miter;stroke:#eaf47f;stroke-opacity:1;stroke-miterlimit:4;" d="M 55.997361 -0.00000000000005694 L 174.39508 -0.00000000000005694 C 205.32017 -0.00000000000005694 230.392443 25.072273 230.392443 55.997363 L 230.392443 174.395082 C 230.392443 205.320172 205.32017 230.392445 174.39508 230.392445 L 55.997361 230.392445 C 25.072271 230.392445 -0.00000201207 205.320172 -0.00000201207 174.395082 L -0.00000201207 55.997363 C -0.00000201207 25.072273 25.072271 -0.00000000000005694 55.997361 -0.00000000000005694 Z M 55.997361 -0.00000000000005694 " transform="matrix(0.745501,0,0,0.745501,0.0000015,0.000000000000042449)"/></g></g><g clip-rule="nonzero" clip-path="url(#79f0e3ba1f)"><path style=" stroke:none;fill-rule:nonzero;fill:#eaf47f;fill-opacity:1;" d="M 85.878906 101.695312 C 77.15625 101.695312 70.0625 94.601562 70.0625 85.878906 C 70.0625 77.15625 77.15625 70.0625 85.878906 70.0625 C 94.601562 70.0625 101.695312 77.15625 101.695312 85.878906 L 96.84375 85.878906 C 96.84375 79.839844 91.933594 74.914062 85.878906 74.914062 C 79.839844 74.914062 74.914062 79.820312 74.914062 85.878906 C 74.914062 91.933594 79.820312 96.84375 85.878906 96.84375 Z M 85.878906 106.992188 C 74.230469 106.992188 64.765625 97.507812 64.765625 85.878906 C 64.765625 74.246094 74.246094 64.765625 85.878906 64.765625 C 97.507812 64.765625 106.992188 74.246094 106.992188 85.878906 L 111.84375 85.878906 C 111.84375 71.5625 100.195312 59.894531 85.859375 59.894531 C 71.542969 59.894531 59.875 71.542969 59.875 85.878906 C 59.875 100.195312 71.523438 111.863281 85.859375 111.863281 L 85.859375 106.992188 Z M 85.878906 117.160156 C 68.636719 117.160156 54.597656 103.121094 54.597656 85.878906 C 54.597656 68.636719 68.636719 54.597656 85.878906 54.597656 C 103.121094 54.597656 117.160156 68.636719 117.160156 85.878906 L 122.011719 85.878906 C 122.011719 65.949219 105.804688 49.746094 85.878906 49.746094 C 65.949219 49.746094 49.746094 65.949219 49.746094 85.878906 C 49.746094 105.804688 65.949219 122.011719 85.878906 122.011719 Z M 85.878906 127.324219 C 74.804688 127.324219 64.394531 123.011719 56.578125 115.195312 C 48.765625 107.378906 44.429688 96.953125 44.429688 85.878906 C 44.429688 74.804688 48.746094 64.394531 56.578125 56.578125 C 64.414062 48.765625 74.804688 44.429688 85.878906 44.429688 C 96.953125 44.429688 107.359375 48.746094 115.175781 56.5625 C 122.992188 64.375 127.308594 74.804688 127.308594 85.859375 L 132.179688 85.859375 C 132.179688 73.488281 127.363281 61.859375 118.621094 53.117188 C 109.878906 44.375 98.25 39.578125 85.878906 39.578125 C 73.507812 39.578125 61.875 44.394531 53.136719 53.136719 C 44.394531 61.875 39.578125 73.507812 39.578125 85.878906 C 39.578125 98.25 44.394531 109.878906 53.136719 118.621094 C 61.875 127.363281 73.507812 132.179688 85.878906 132.179688 Z M 85.878906 127.324219 "/></g></g></svg>