<svg xmlns="http://www.w3.org/2000/svg" xmlns:xlink="http://www.w3.org/1999/xlink" width="431px" height="394px" viewBox="0 0 430.84639148354745 393.7092420022359">
    <g transform="matrix(1 0 0 1 -1429.217705 -40.645379)" id="e3a3f064-85b8-44d6-b7bb-9f6def12f686">

</g>
<g id="b24a984f-7325-4ed0-a921-1083466ce3d7">
<g style="">
		<g id="00a7b84f-adef-4ad5-9f9b-950a30f262c5">
<path style="stroke: rgb(193,193,193); stroke-width: 0; stroke-dasharray: none; stroke-linecap: butt; stroke-dashoffset: 0; stroke-linejoin: miter; stroke-miterlimit: 4; fill: rgb(0,0,0); fill-rule: nonzero; opacity: 1;" d="M40.57639,347.43924c1.57,0 2.9,-0.5 4,-1.51c1.11,-1.01 1.66,-2.21 1.66,-3.62v-10.3c0,-1.41 -0.55,-2.61 -1.66,-3.62c-1.1,-1.01 -2.43,-1.52 -4,-1.52h-16.98v20.57zM6.64639,373.13924v-61.7h33.93c6.23,0 11.56,2.02 15.99,6.05c4.43,4.01 6.65,8.85 6.65,14.52v10.3c0,5.67 -2.22,10.51 -6.65,14.52c-4.43,4.03 -9.76,6.04 -15.99,6.04h-16.98v10.27zM68.87639,373.13924v-51.4h16.94v10.27h3.8c0,-2.84 0.73,-5.27 2.18,-7.28c1.47,-1.99 3.25,-2.99 5.34,-2.99h5.66v15.4h-5.66c-3.11,0 -5.78,0.5 -8.01,1.51c-2.21,1.01 -3.31,2.23 -3.31,3.66v0v30.83zM108.45639,373.13924v-51.4h16.95v51.4zM108.45639,317.86924v-6.43h16.95v6.43zM131.06639,373.13924v-21.83l31.11,-14.17h-31.11v-15.4h50.91v21.83l-31.12,14.17h31.12v15.4zM221.55639,342.30924c0,-1.43 -0.55,-2.64 -1.65,-3.62c-1.1,-1.03 -2.44,-1.55 -4.01,-1.55h-5.66c-1.55,0 -2.87,0.52 -3.97,1.55c-1.13,0.98 -1.69,2.19 -1.69,3.62zM210.23639,373.13924c-6.23,0 -11.57,-2 -16,-6.01c-4.4,-4.01 -6.6,-8.86 -6.6,-14.56v-10.26c0,-5.67 2.2,-10.53 6.6,-14.56c4.43,-4.01 9.77,-6.01 16,-6.01h5.66c6.26,0 11.59,2 16,6.01c4.43,4.03 6.64,8.89 6.64,14.56v6.43h-33.96v3.83c0,1.43 0.56,2.65 1.69,3.66c1.1,1.01 2.42,1.51 3.97,1.51h5.66c1.57,0 2.91,-0.5 4.01,-1.51c1.1,-1.01 1.65,-2.23 1.65,-3.66h16.98c0,5.7 -2.21,10.55 -6.64,14.56c-4.41,4.01 -9.74,6.01 -16,6.01zM272.46639,357.73924c1.57,0 2.9,-0.5 4.01,-1.51c1.1,-1.01 1.65,-2.23 1.65,-3.66v-10.26c0,-1.43 -0.55,-2.64 -1.65,-3.62c-1.11,-1.03 -2.44,-1.55 -4.01,-1.55c-3.12,0 -5.79,0.5 -8.02,1.51c-2.2,1.01 -3.3,2.23 -3.3,3.66v0v10.26v0c0,1.43 1.1,2.65 3.3,3.66c2.23,1.01 4.9,1.51 8.02,1.51zM244.19639,393.70924v-71.97h16.95v10.27h3.79c0,-2.84 0.73,-5.27 2.18,-7.28c1.48,-1.99 3.26,-2.99 5.35,-2.99c6.25,0 11.58,2 15.99,6.01c4.43,4.03 6.65,8.89 6.65,14.56v10.26c0,5.7 -2.22,10.55 -6.65,14.56c-4.41,4.01 -9.74,6.01 -15.99,6.01c-2.09,0 -3.87,-1 -5.35,-2.99c-1.45,-2.01 -2.18,-4.44 -2.18,-7.28h-3.79v30.84zM329.02639,357.73924c1.57,0 2.91,-0.5 4.01,-1.51c1.1,-1.01 1.65,-2.23 1.65,-3.66v-10.26c0,-1.43 -0.55,-2.64 -1.65,-3.62c-1.1,-1.03 -2.44,-1.55 -4.01,-1.55h-5.66c-1.55,0 -2.87,0.52 -3.97,1.55c-1.13,0.98 -1.69,2.19 -1.69,3.62v10.26c0,1.43 0.56,2.65 1.69,3.66c1.1,1.01 2.42,1.51 3.97,1.51zM323.36639,373.13924c-6.23,0 -11.56,-2 -15.99,-6.01c-4.41,-4.01 -6.61,-8.86 -6.61,-14.56v-10.26c0,-5.67 2.2,-10.53 6.61,-14.56c4.43,-4.01 9.76,-6.01 15.99,-6.01h5.66c6.26,0 11.59,2 16,6.01c4.43,4.03 6.64,8.89 6.64,14.56v10.26c0,5.7 -2.21,10.55 -6.64,14.56c-4.41,4.01 -9.74,6.01 -16,6.01zM385.59639,357.73924c1.57,0 2.91,-0.5 4.01,-1.51c1.1,-1.01 1.65,-2.23 1.65,-3.66v-10.26c0,-1.43 -0.55,-2.64 -1.65,-3.62c-1.1,-1.03 -2.44,-1.55 -4.01,-1.55h-5.66c-1.55,0 -2.87,0.52 -3.97,1.55c-1.13,0.98 -1.69,2.19 -1.69,3.62v10.26c0,1.43 0.56,2.65 1.69,3.66c1.1,1.01 2.42,1.51 3.97,1.51zM379.93639,373.13924c-6.23,0 -11.57,-2 -16,-6.01c-4.41,-4.01 -6.61,-8.86 -6.61,-14.56v-10.26c0,-5.67 2.2,-10.53 6.61,-14.56c4.43,-4.01 9.77,-6.01 16,-6.01h5.66c6.26,0 11.59,2 16,6.01c4.43,4.03 6.64,8.89 6.64,14.56v10.26c0,5.7 -2.21,10.55 -6.64,14.56c-4.41,4.01 -9.74,6.01 -16,6.01zM413.89639,373.13924v-61.7h16.95v61.7z" stroke-linecap="round"/>
</g>
</g>
</g>
<g transform="matrix(1 0 0 1 -1429.217705 -40.645379)" id="484cf362-25ee-4a24-bd09-f55fcdecac47">

</g>
<g transform="matrix(1 0 0 1 -1429.217705 -40.645379)" id="a92c2910-a172-4c10-a27e-31aa2795fcda">

</g>
<g transform="matrix(1 0 0 1 -1429.217705 -40.645379)" id="ae5e0b18-f4e6-4279-b552-ef76164d6405">

</g>
<g id="0f5796af-2bba-4586-b423-5522371c1bba">
<g style="">
		<g id="11320d1b-27db-4051-89b7-ac9ad06a9a2b">
<path style="stroke: rgb(193,193,193); stroke-width: 0; stroke-dasharray: none; stroke-linecap: butt; stroke-dashoffset: 0; stroke-linejoin: miter; stroke-miterlimit: 4; fill: rgb(254,170,192); fill-rule: nonzero; opacity: 1;" d="M159.32639,296.43219v-15.4h11.29v-25.73c0,-1.41 -0.55,-2.61 -1.65,-3.62c-1.11,-1.01 -2.44,-1.52 -4.01,-1.52h-5.63v-15.43h5.63c6.26,0 11.59,2.02 16,6.05c4.43,4.01 6.64,8.85 6.64,14.52v25.73h11.32v15.4zM204.57639,296.43219v-61.7h16.95v46.3h39.62v15.4zM289.40639,281.03219c3.14,0 5.81,-0.5 8.02,-1.51c2.2,-1.01 3.3,-2.23 3.3,-3.66v0h-14.13c-0.8,0 -1.47,0.26 -2,0.78c-0.57,0.49 -0.85,1.09 -0.85,1.79c0,0.73 0.28,1.34 0.85,1.83c0.53,0.51 1.2,0.77 2,0.77zM289.40639,296.43219c-6.23,0 -11.56,-2 -15.99,-6.01c-4.41,-4.01 -6.61,-8.86 -6.61,-14.56v-1.26c0,-1.43 0.55,-2.65 1.65,-3.66c1.1,-1.01 2.42,-1.51 3.97,-1.51h28.3v-3.83c0,-1.43 -0.55,-2.64 -1.65,-3.62c-1.1,-1.03 -2.44,-1.55 -4.01,-1.55h-5.66c-1.55,0 -2.87,0.52 -3.97,1.55c-1.13,0.98 -1.69,2.19 -1.69,3.62h-16.94c0,-5.67 2.2,-10.53 6.61,-14.56c4.43,-4.01 9.76,-6.01 15.99,-6.01h5.66c6.26,0 11.59,2 16,6.01c4.43,4.03 6.64,8.89 6.64,14.56v30.83h-16.98v-10.27h-3.76c0,2.84 -0.74,5.27 -2.21,7.28c-1.48,1.99 -3.26,2.99 -5.35,2.99zM323.36639,296.43219v-61.7h16.95v25.7h11.32c1.57,0 2.9,-0.5 4.01,-1.51c1.1,-0.99 1.65,-2.19 1.65,-3.62v-10.27h16.98v10.27c0,1.89 -1.11,3.51 -3.34,4.85c-2.2,1.33 -4.86,2 -7.98,2v3.45c3.12,0 5.78,1.01 7.98,3.02c2.23,1.99 3.34,4.41 3.34,7.24v20.57h-16.98v-15.4c0,-1.43 -0.55,-2.64 -1.65,-3.65c-1.11,-1.01 -2.44,-1.52 -4.01,-1.52h-11.32v20.57zM379.93639,296.43219v-61.7h16.95v20.57h3.79c0,-2.84 0.73,-5.27 2.18,-7.28c1.48,-1.99 3.26,-2.99 5.35,-2.99c6.25,0 11.58,2 15.99,6.01c4.43,4.03 6.65,8.89 6.65,14.56v30.83h-16.98v-30.83c0,-1.43 -0.55,-2.64 -1.66,-3.62c-1.1,-1.03 -2.43,-1.55 -4,-1.55c-3.12,0 -5.79,0.5 -8.02,1.51c-2.2,1.01 -3.3,2.23 -3.3,3.66v0v30.83z" stroke-linecap="round"/>
</g>
</g>
</g>
<g transform="matrix(1 0 0 1 -1429.217705 -40.645379)" id="ead5cb64-f3be-472f-a0c8-ee9e9aec7bf3">

</g>
<g transform="matrix(1 0 0 1 -1429.217705 -40.645379)" id="6c1860e9-5072-4a81-ba6e-ca116f3da482">

</g>
<g transform="matrix(1 0 0 1 -1429.217705 -40.645379)" id="1fe6f0db-488c-40cb-a7f6-a7147d5674e5">

</g>
<g id="db4d081e-8839-4a66-b12f-68ca7e83c974">
<g style="">
		<g id="adfa531c-306e-436f-a844-72eeba4b411a">
<path style="stroke: rgb(193,193,193); stroke-width: 0; stroke-dasharray: none; stroke-linecap: butt; stroke-dashoffset: 0; stroke-linejoin: miter; stroke-miterlimit: 4; fill: rgb(0,0,0); fill-rule: nonzero; opacity: 1;" d="M170.64639,61.7v-61.7h16.95v23.13h22.64v-23.13h16.98v61.7h-16.98v-23.13h-22.64v23.13zM261.14639,46.3c1.57,0 2.9,-0.5 4,-1.51c1.11,-1.01 1.66,-2.23 1.66,-3.66v-10.26c0,-1.43 -0.55,-2.64 -1.66,-3.62c-1.1,-1.03 -2.43,-1.55 -4,-1.55h-5.66c-1.55,0 -2.87,0.52 -3.98,1.55c-1.12,0.98 -1.68,2.19 -1.68,3.62v10.26c0,1.43 0.56,2.65 1.68,3.66c1.11,1.01 2.43,1.51 3.98,1.51zM255.48639,61.7c-6.23,0 -11.57,-2 -16,-6.01c-4.41,-4.01 -6.61,-8.86 -6.61,-14.56v-10.26c0,-5.67 2.2,-10.53 6.61,-14.56c4.43,-4.01 9.77,-6.01 16,-6.01h5.66c6.25,0 11.58,2 15.99,6.01c4.43,4.03 6.65,8.89 6.65,14.56v10.26c0,5.7 -2.22,10.55 -6.65,14.56c-4.41,4.01 -9.74,6.01 -15.99,6.01zM312.04639,61.7c-6.23,0 -11.56,-2 -15.99,-6.01c-4.41,-4.01 -6.61,-8.86 -6.61,-14.56v-30.83h16.94v30.83c0,1.43 0.56,2.65 1.69,3.66c1.1,1.01 2.42,1.51 3.97,1.51c3.14,0 5.81,-0.5 8.02,-1.51c2.2,-1.01 3.3,-2.23 3.3,-3.66v0v-30.83h16.98v51.4h-16.98v-10.27h-3.76c0,2.84 -0.74,5.27 -2.21,7.28c-1.48,1.99 -3.26,2.99 -5.35,2.99zM346.00639,61.7v-51.4h16.95v10.27h3.8c0,-2.84 0.73,-5.27 2.18,-7.28c1.47,-1.99 3.25,-2.99 5.34,-2.99h5.66v15.4h-5.66c-3.12,0 -5.79,0.5 -8.02,1.51c-2.2,1.01 -3.3,2.23 -3.3,3.66v0v30.83zM385.59639,61.7v-15.4h25.45c0.77,0 1.44,-0.26 2.01,-0.77c0.54,-0.49 0.81,-1.1 0.81,-1.83c0,-0.7 -0.27,-1.3 -0.81,-1.79c-0.57,-0.52 -1.24,-0.78 -2.01,-0.78h-14.16c-3.12,0 -5.78,-0.99 -7.99,-2.98c-2.2,-2.02 -3.3,-4.45 -3.3,-7.28v-10.3c0,-2.84 1.1,-5.27 3.3,-7.28c2.21,-1.99 4.87,-2.99 7.99,-2.99h33.96v15.4h-25.46c-0.79,0 -1.46,0.26 -2,0.77c-0.56,0.49 -0.84,1.1 -0.84,1.83c0,0.71 0.28,1.3 0.84,1.79c0.54,0.52 1.21,0.78 2,0.78h14.14c3.14,0 5.81,1.01 8.01,3.02c2.21,1.99 3.31,4.41 3.31,7.24v10.3c0,2.84 -1.1,5.27 -3.31,7.28c-2.23,1.99 -4.9,2.99 -8.01,2.99z" stroke-linecap="round"/>
</g>
</g>
</g>
<g transform="matrix(1 0 0 1 -1429.217705 -40.645379)" id="a2555103-a19c-42e4-8b21-d8d971b1b59e">

</g>
<g transform="matrix(1 0 0 1 -1429.217705 -40.645379)" id="aeda7841-d72e-47fb-8181-fbaf24d28814">

</g>
<g transform="matrix(1 0 0 1 -1429.217705 -40.645379)" id="bcb6c6c2-a84f-4ab5-8941-048e30de57ad">

</g>
<g id="216f7ee2-5d84-464f-92e2-5aaf4589849d">
<g style="">
		<g id="79482d87-2f85-4056-952f-8657eb1951c3">
<path style="stroke: rgb(193,193,193); stroke-width: 0; stroke-dasharray: none; stroke-linecap: butt; stroke-dashoffset: 0; stroke-linejoin: miter; stroke-miterlimit: 4; fill: rgb(254,170,192); fill-rule: nonzero; opacity: 1;" d="M47.61007,61.7c-6.24,0 -11.57,-2 -16,-6.01c-4.41,-4.01 -6.61,-8.86 -6.61,-14.56h16.95c0,1.43 0.56,2.65 1.68,3.66c1.11,1.01 2.43,1.51 3.98,1.51h11.32c1.57,0 2.9,-0.5 4,-1.51c1.11,-1.01 1.66,-2.23 1.66,-3.66c0,-1.41 -0.55,-2.61 -1.66,-3.62c-1.1,-1.01 -2.43,-1.51 -4,-1.51h-11.32v-10.3h11.32c1.57,0 2.9,-0.5 4,-1.51c1.11,-0.99 1.66,-2.19 1.66,-3.62c0,-1.41 -0.55,-2.61 -1.66,-3.62c-1.1,-1.01 -2.43,-1.52 -4,-1.52h-11.32c-1.55,0 -2.87,0.51 -3.98,1.52c-1.12,1.01 -1.68,2.21 -1.68,3.62h-16.95c0,-5.67 2.2,-10.51 6.61,-14.52c4.43,-4.03 9.76,-6.05 16,-6.05h11.32c6.23,0 11.56,2.02 15.99,6.05c4.43,4.01 6.65,8.85 6.65,14.52c0,2.83 -2.22,5.26 -6.65,7.27c-1.45,0.66 -3.01,1.21 -4.67,1.66v2.7c1.66,0.45 3.22,1.01 4.67,1.69c4.43,1.99 6.65,4.41 6.65,7.24c0,5.7 -2.22,10.55 -6.65,14.56c-4.43,4.01 -9.76,6.01 -15.99,6.01zM121.15007,46.3c1.57,0 2.91,-0.5 4.01,-1.51c1.1,-1.01 1.65,-2.23 1.65,-3.66v-2.56c0,-0.71 -0.28,-1.32 -0.84,-1.83c-0.54,-0.49 -1.21,-0.74 -2.01,-0.74h-19.79v5.13c0,1.43 0.56,2.65 1.69,3.66c1.1,1.01 2.42,1.51 3.97,1.51zM109.83007,61.7c-6.23,0 -11.56,-2 -15.99,-6.01c-4.41,-4.01 -6.61,-8.86 -6.61,-14.56v-20.56c0,-5.67 2.2,-10.51 6.61,-14.52c4.43,-4.03 9.76,-6.05 15.99,-6.05h11.32c6.23,0 11.57,2.02 16,6.05c4.43,4.01 6.64,8.85 6.64,14.52h-16.98c0,-1.41 -0.55,-2.61 -1.65,-3.62c-1.1,-1.01 -2.44,-1.52 -4.01,-1.52h-11.32c-1.55,0 -2.87,0.51 -3.97,1.52c-1.13,1.01 -1.69,2.21 -1.69,3.62v5.13h33.96c1.55,0 2.87,0.5 3.98,1.51c1.12,1.01 1.68,2.23 1.68,3.66v10.26c0,5.7 -2.21,10.55 -6.64,14.56c-4.43,4.01 -9.77,6.01 -16,6.01z" stroke-linecap="round"/>
</g>
</g>
</g>
<g transform="matrix(1 0 0 1 -1429.217705 -40.645379)" id="30b57975-00cd-4a7c-9707-6a37203c3591">

</g>
<g transform="matrix(1 0 0 1 -1429.217705 -40.645379)" id="b1410e86-e895-4426-b3fd-0767520bd868">

</g>

  </svg>